<svg width="8" height="5" viewBox="0 0 8 5" fill="none" xmlns="http://www.w3.org/2000/svg">
<path d="M0.803571 0.274694C0.738281 0.274694 0.680245 0.303712 0.636719 0.347239L0.273995 0.709962C0.230469 0.753489 0.20145 0.818779 0.20145 0.876815C0.20145 0.93485 0.230469 1.00014 0.273995 1.04367L3.65458 4.42425C3.6981 4.46777 3.76339 4.49679 3.82143 4.49679C3.87946 4.49679 3.94475 4.46777 3.98828 4.42425L7.36886 1.04367C7.41239 1.00014 7.44141 0.93485 7.44141 0.876815C7.44141 0.818779 7.41239 0.753489 7.36886 0.709962L7.00614 0.347239C6.96261 0.303712 6.89732 0.274694 6.83929 0.274694C6.78125 0.274694 6.71596 0.303712 6.67243 0.347239L3.82143 3.19824L0.970424 0.347239C0.926897 0.303712 0.861607 0.274694 0.803571 0.274694Z" fill="black"/>
</svg>
