<svg width="24" height="21" viewBox="0 0 24 21" fill="none" xmlns="http://www.w3.org/2000/svg">
<path d="M9.0502 0.150635H3.39389C1.96796 0.150635 0.807983 1.31093 0.807983 2.73686V13.763C0.807983 15.189 1.96796 16.3489 3.39389 16.3489H7.65855C7.78769 16.3489 7.90881 16.3992 8.00014 16.4906L11.0106 19.5017C11.3371 19.8279 11.771 20.0076 12.2328 20.0076C12.6942 20.0076 13.1281 19.8279 13.4543 19.5017L16.4654 16.4902C16.5564 16.3992 16.6775 16.3489 16.8063 16.3489H20.5996C22.0256 16.3489 23.1855 15.1886 23.1855 13.763V2.73686C23.1855 1.31093 22.0256 0.150635 20.5996 0.150635H11.9969C11.6569 0.150635 11.3817 0.426209 11.3817 0.765869C11.3817 1.10585 11.6569 1.3811 11.9969 1.3811H20.5996C21.3469 1.3811 21.9551 1.98929 21.9551 2.73686V13.763C21.9551 14.5103 21.3469 15.1185 20.5996 15.1185H16.8063C16.3487 15.1185 15.9184 15.2969 15.5948 15.6203L12.584 18.6314C12.4901 18.7256 12.3654 18.7772 12.2328 18.7772C12.0998 18.7772 11.9748 18.7256 11.8809 18.6314L8.87044 15.6203C8.5468 15.2966 8.11646 15.1185 7.65855 15.1185H3.39389C2.64664 15.1185 2.03845 14.5103 2.03845 13.763V2.73686C2.03845 1.98929 2.64664 1.3811 3.39389 1.3811H9.0502C9.39018 1.3811 9.66544 1.10585 9.66544 0.765869C9.66544 0.426209 9.39018 0.150635 9.0502 0.150635Z" fill="white"/>
<path d="M5.19788 6.06987V10.6107C5.19788 11.6948 6.07971 12.5766 7.16374 12.5766H13.4295C14.3742 12.5766 15.165 11.9069 15.3528 11.0177L17.4039 11.9941C17.5378 12.0575 17.6804 12.0892 17.823 12.0892C18.0034 12.0892 18.1832 12.0383 18.3418 11.938C18.626 11.7589 18.7955 11.4512 18.7955 11.1151V5.56551C18.7955 5.22937 18.626 4.92175 18.3418 4.74263C18.0579 4.56319 17.7073 4.54236 17.4039 4.68655L15.3528 5.66292C15.1647 4.77339 14.3742 4.104 13.4295 4.104H7.16374C6.07971 4.10368 5.19788 4.98584 5.19788 6.06987ZM17.5651 5.97246V10.7078L15.3957 9.67508V7.00522L17.5651 5.97246ZM14.1652 6.06987V10.6107C14.1652 11.0161 13.8352 11.3461 13.4295 11.3461H7.16374C6.75839 11.3461 6.42835 11.0161 6.42835 10.6107V6.06987C6.42835 5.6642 6.75807 5.33415 7.16374 5.33415H13.4295C13.8352 5.33415 14.1652 5.6642 14.1652 6.06987Z" fill="white"/>
</svg>
