<svg width="21" height="21" viewBox="0 0 21 21" fill="none" xmlns="http://www.w3.org/2000/svg">
<g clip-path="url(#clip0)">
<path d="M20.8198 17.3397L17.2716 13.7915L19.0118 12.0514C19.1625 11.9006 19.2245 11.6825 19.1755 11.475C19.1265 11.2674 18.9736 11.1001 18.7713 11.0326L8.33044 7.55235C8.10941 7.47864 7.86561 7.53619 7.70085 7.70099C7.53605 7.86579 7.4785 8.1095 7.55221 8.33058L11.0325 18.7715C11.1 18.9738 11.2673 19.1267 11.4748 19.1757C11.6823 19.2248 11.9004 19.1628 12.0512 19.0119L13.7914 17.2718L17.3396 20.82C17.4597 20.9401 17.6172 21.0002 17.7746 21.0002C17.932 21.0002 18.0895 20.9401 18.2096 20.82L20.8198 18.2097C21.0601 17.9695 21.0601 17.5799 20.8198 17.3397ZM17.7745 19.5148L14.2264 15.9667C13.9861 15.7264 13.5965 15.7264 13.3563 15.9667L11.885 17.438L9.10863 9.10881L17.4378 11.8852L15.9665 13.3565C15.7265 13.5965 15.7263 13.9863 15.9665 14.2265L19.5147 17.7747L17.7745 19.5148Z" fill="white"/>
<path d="M7.99805 4.92188C8.33782 4.92188 8.61328 4.64641 8.61328 4.30664V0.615234C8.61328 0.275461 8.33782 0 7.99805 0C7.65827 0 7.38281 0.275461 7.38281 0.615234V4.30664C7.38281 4.64641 7.65827 4.92188 7.99805 4.92188Z" fill="white"/>
<path d="M3.21262 2.34256C2.97239 2.10229 2.58283 2.10229 2.34256 2.34256C2.10229 2.58283 2.10229 2.97235 2.34256 3.21262L4.95279 5.82285C5.19302 6.06312 5.58263 6.06312 5.82285 5.82285C6.06312 5.58258 6.06312 5.19306 5.82285 4.95279L3.21262 2.34256Z" fill="white"/>
<path d="M4.95279 10.1734L2.34256 12.7836C2.10229 13.0239 2.10229 13.4134 2.34256 13.6537C2.58278 13.8939 2.97239 13.8939 3.21262 13.6537L5.82285 11.0434C6.06312 10.8032 6.06312 10.4136 5.82285 10.1734C5.58258 9.9331 5.19302 9.9331 4.95279 10.1734Z" fill="white"/>
<path d="M11.0433 5.82285L13.6536 3.21262C13.8938 2.97235 13.8938 2.58283 13.6536 2.34256C13.4133 2.10229 13.0238 2.10229 12.7835 2.34256L10.1732 4.95279C9.93297 5.19306 9.93297 5.58258 10.1732 5.82285C10.4135 6.06312 10.8031 6.06312 11.0433 5.82285Z" fill="white"/>
<path d="M4.92188 7.99805C4.92188 7.65827 4.64641 7.38281 4.30664 7.38281H0.615234C0.275461 7.38281 0 7.65827 0 7.99805C0 8.33782 0.275461 8.61328 0.615234 8.61328H4.30664C4.64641 8.61328 4.92188 8.33782 4.92188 7.99805Z" fill="white"/>
</g>
<defs>
<clipPath id="clip0">
<rect width="21" height="21" fill="white"/>
</clipPath>
</defs>
</svg>
