<svg width="9" height="14" viewBox="0 0 9 14" fill="none" xmlns="http://www.w3.org/2000/svg">
<path d="M8.60826 1.71428C8.60826 1.59375 8.55469 1.48661 8.47433 1.40625L7.80469 0.736606C7.72433 0.65625 7.60379 0.602677 7.49665 0.602677C7.38951 0.602677 7.26897 0.65625 7.18862 0.736606L0.947544 6.97768C0.867187 7.05804 0.813615 7.17857 0.813615 7.28571C0.813615 7.39286 0.867187 7.51339 0.947544 7.59375L7.18862 13.8348C7.26897 13.9152 7.38951 13.9687 7.49665 13.9687C7.60379 13.9687 7.72433 13.9152 7.80469 13.8348L8.47433 13.1652C8.55469 13.0848 8.60826 12.9643 8.60826 12.8571C8.60826 12.75 8.55469 12.6295 8.47433 12.5491L3.21094 7.28571L8.47433 2.02232C8.55469 1.94196 8.60826 1.82143 8.60826 1.71428Z" fill="#6F6F6F"/>
</svg>
