<svg width="77" height="75" viewBox="0 0 77 75" fill="none" xmlns="http://www.w3.org/2000/svg">
<rect x="1.2" y="0.2" width="74.6" height="74.6" rx="4.8" fill="#FAFAFA" stroke="#6A6A6A" stroke-width="0.4"/>
<g clip-path="url(#clip0)">
<path d="M42.7259 33.0001C42.5649 33.0001 42.4 32.9799 42.2371 32.9368L27.4184 28.9683C26.4026 28.6885 25.7969 27.6363 26.0633 26.6204L27.933 19.6514C28.002 19.3956 28.2646 19.247 28.5195 19.3122C28.7754 19.3802 28.9268 19.6438 28.8588 19.8987L26.99 26.8658C26.8568 27.3737 27.1616 27.9027 27.6704 28.0436L42.4834 32.0101C42.9923 32.1443 43.5174 31.8414 43.6497 31.3354L44.3981 28.562C44.4671 28.3061 44.7297 28.1538 44.9856 28.2237C45.2415 28.2927 45.3919 28.5563 45.3239 28.8112L44.5764 31.5808C44.3512 32.4337 43.5749 33.0001 42.7259 33.0001Z" fill="#515151"/>
<path d="M47.0832 27.2501H31.7499C30.6929 27.2501 29.8332 26.3905 29.8332 25.3334V13.8334C29.8332 12.7764 30.6929 11.9167 31.7499 11.9167H47.0832C48.1403 11.9167 48.9999 12.7764 48.9999 13.8334V25.3334C48.9999 26.3905 48.1403 27.2501 47.0832 27.2501ZM31.7499 12.8751C31.2219 12.8751 30.7916 13.3054 30.7916 13.8334V25.3334C30.7916 25.8615 31.2219 26.2917 31.7499 26.2917H47.0832C47.6113 26.2917 48.0416 25.8615 48.0416 25.3334V13.8334C48.0416 13.3054 47.6113 12.8751 47.0832 12.8751H31.7499Z" fill="#515151"/>
<path d="M34.6249 18.6251C33.5679 18.6251 32.7082 17.7655 32.7082 16.7084C32.7082 15.6514 33.5679 14.7917 34.6249 14.7917C35.682 14.7917 36.5416 15.6514 36.5416 16.7084C36.5416 17.7655 35.682 18.6251 34.6249 18.6251ZM34.6249 15.7501C34.0969 15.7501 33.6666 16.1804 33.6666 16.7084C33.6666 17.2365 34.0969 17.6667 34.6249 17.6667C35.153 17.6667 35.5832 17.2365 35.5832 16.7084C35.5832 16.1804 35.153 15.7501 34.6249 15.7501Z" fill="#515151"/>
<path d="M30.3796 26.2245C30.257 26.2245 30.1343 26.1776 30.0404 26.0846C29.8535 25.8977 29.8535 25.5939 30.0404 25.4071L34.5666 20.8808C35.109 20.3384 36.0568 20.3384 36.5992 20.8808L37.9466 22.2283L41.6764 17.7529C41.9477 17.428 42.3463 17.2392 42.7709 17.2354H42.7814C43.2012 17.2354 43.5989 17.4174 43.8729 17.7366L48.885 23.5843C49.0575 23.7846 49.0345 24.0874 48.8333 24.2599C48.633 24.4324 48.3311 24.4104 48.1576 24.2082L43.1456 18.3604C43.0526 18.2531 42.9242 18.1937 42.7814 18.1937C42.6817 18.1851 42.5064 18.2541 42.4134 18.3662L38.3472 23.2451C38.2609 23.3486 38.1354 23.4108 38.0003 23.4166C37.8642 23.4262 37.7348 23.3725 37.6399 23.2767L35.9217 21.5584C35.7405 21.3782 35.4252 21.3782 35.2441 21.5584L30.7179 26.0846C30.625 26.1776 30.5023 26.2245 30.3796 26.2245Z" fill="#515151"/>
</g>
<path d="M22.6039 46.1133C23.0596 46.1133 23.4193 46.0221 23.683 45.8398C23.9499 45.6576 24.0834 45.3288 24.0834 44.8535C24.0834 44.3424 23.8979 43.9941 23.5268 43.8086C23.3282 43.7109 23.0629 43.6621 22.7309 43.6621H20.3578V46.1133H22.6039ZM19.3861 42.8271H22.7064C23.2533 42.8271 23.7042 42.9069 24.059 43.0664C24.7328 43.3724 25.0697 43.9372 25.0697 44.7607C25.0697 45.1904 24.9802 45.542 24.8012 45.8154C24.6254 46.0889 24.378 46.3086 24.059 46.4746C24.3389 46.5885 24.5489 46.7383 24.6889 46.9238C24.8321 47.1094 24.9118 47.4105 24.9281 47.8271L24.9623 48.7891C24.9721 49.0625 24.9949 49.266 25.0307 49.3994C25.0893 49.6273 25.1934 49.7738 25.3432 49.8389V50H24.1518C24.1192 49.9382 24.0932 49.8584 24.0736 49.7607C24.0541 49.6631 24.0378 49.4743 24.0248 49.1943L23.9662 47.998C23.9434 47.5293 23.7693 47.2152 23.4438 47.0557C23.2582 46.9678 22.9669 46.9238 22.5697 46.9238H20.3578V50H19.3861V42.8271ZM28.7061 44.6533C29.0771 44.6533 29.4368 44.7412 29.7852 44.917C30.1335 45.0895 30.3988 45.3141 30.5811 45.5908C30.7568 45.8545 30.874 46.1621 30.9326 46.5137C30.9847 46.7546 31.0107 47.1387 31.0107 47.666H27.1777C27.194 48.1966 27.3193 48.623 27.5537 48.9453C27.7881 49.2643 28.151 49.4238 28.6426 49.4238C29.1016 49.4238 29.4678 49.2725 29.7412 48.9697C29.8975 48.7939 30.0081 48.5905 30.0732 48.3594H30.9375C30.9147 48.5514 30.8382 48.7663 30.708 49.0039C30.5811 49.2383 30.4378 49.4303 30.2783 49.5801C30.0114 49.8405 29.681 50.0163 29.2871 50.1074C29.0755 50.1595 28.8363 50.1855 28.5693 50.1855C27.9183 50.1855 27.3665 49.9495 26.9141 49.4775C26.4616 49.0023 26.2354 48.3382 26.2354 47.4854C26.2354 46.6455 26.4632 45.9635 26.9189 45.4395C27.3747 44.9154 27.9704 44.6533 28.7061 44.6533ZM30.1074 46.9678C30.0716 46.5869 29.9886 46.2826 29.8584 46.0547C29.6175 45.6315 29.2155 45.4199 28.6523 45.4199C28.2487 45.4199 27.9102 45.5664 27.6367 45.8594C27.3633 46.1491 27.2184 46.5186 27.2021 46.9678H30.1074ZM34.2613 44.6191C34.8505 44.6191 35.329 44.7624 35.6969 45.0488C36.068 45.3353 36.291 45.8285 36.3658 46.5283H35.5113C35.4592 46.2061 35.3404 45.9391 35.1549 45.7275C34.9693 45.5127 34.6715 45.4053 34.2613 45.4053C33.7014 45.4053 33.301 45.6787 33.0602 46.2256C32.9039 46.5804 32.8258 47.0182 32.8258 47.5391C32.8258 48.0632 32.9365 48.5042 33.1578 48.8623C33.3792 49.2204 33.7275 49.3994 34.2027 49.3994C34.5673 49.3994 34.8554 49.2887 35.067 49.0674C35.2818 48.8428 35.4299 48.5368 35.5113 48.1494H36.3658C36.2682 48.8428 36.024 49.3506 35.6334 49.6729C35.2428 49.9919 34.7431 50.1514 34.1344 50.1514C33.4508 50.1514 32.9055 49.9023 32.4986 49.4043C32.0917 48.903 31.8883 48.278 31.8883 47.5293C31.8883 46.6113 32.1113 45.8968 32.5572 45.3857C33.0032 44.8747 33.5712 44.6191 34.2613 44.6191ZM39.5725 44.6533C39.9436 44.6533 40.3033 44.7412 40.6516 44.917C40.9999 45.0895 41.2652 45.3141 41.4475 45.5908C41.6232 45.8545 41.7404 46.1621 41.799 46.5137C41.8511 46.7546 41.8772 47.1387 41.8772 47.666H38.0441C38.0604 48.1966 38.1857 48.623 38.4201 48.9453C38.6545 49.2643 39.0175 49.4238 39.509 49.4238C39.968 49.4238 40.3342 49.2725 40.6076 48.9697C40.7639 48.7939 40.8745 48.5905 40.9397 48.3594H41.8039C41.7811 48.5514 41.7046 48.7663 41.5744 49.0039C41.4475 49.2383 41.3042 49.4303 41.1447 49.5801C40.8778 49.8405 40.5474 50.0163 40.1535 50.1074C39.9419 50.1595 39.7027 50.1855 39.4357 50.1855C38.7847 50.1855 38.2329 49.9495 37.7805 49.4775C37.328 49.0023 37.1018 48.3382 37.1018 47.4854C37.1018 46.6455 37.3296 45.9635 37.7854 45.4395C38.2411 44.9154 38.8368 44.6533 39.5725 44.6533ZM40.9738 46.9678C40.938 46.5869 40.855 46.2826 40.7248 46.0547C40.4839 45.6315 40.0819 45.4199 39.5188 45.4199C39.1151 45.4199 38.7766 45.5664 38.5031 45.8594C38.2297 46.1491 38.0848 46.5186 38.0686 46.9678H40.9738ZM43.1111 44.7705H43.9461V45.5127C44.1935 45.2067 44.4555 44.987 44.7322 44.8535C45.0089 44.7201 45.3165 44.6533 45.6551 44.6533C46.3973 44.6533 46.8986 44.9121 47.159 45.4297C47.3022 45.7129 47.3738 46.1182 47.3738 46.6455V50H46.4803V46.7041C46.4803 46.3851 46.4331 46.1279 46.3387 45.9326C46.1824 45.6071 45.8992 45.4443 45.4891 45.4443C45.2807 45.4443 45.1098 45.4655 44.9764 45.5078C44.7355 45.5794 44.5239 45.7227 44.3416 45.9375C44.1951 46.11 44.0991 46.2891 44.0535 46.4746C44.0112 46.6569 43.99 46.9189 43.99 47.2607V50H43.1111V44.7705ZM49.0033 43.3105H49.892V44.7705H50.727V45.4883H49.892V48.9014C49.892 49.0837 49.9538 49.2057 50.0775 49.2676C50.1459 49.3034 50.2598 49.3213 50.4193 49.3213C50.4617 49.3213 50.5072 49.3213 50.5561 49.3213C50.6049 49.318 50.6618 49.3132 50.727 49.3066V50C50.626 50.0293 50.5202 50.0505 50.4096 50.0635C50.3021 50.0765 50.185 50.083 50.058 50.083C49.6479 50.083 49.3695 49.9788 49.223 49.7705C49.0766 49.5589 49.0033 49.2855 49.0033 48.9502V45.4883H48.2953V44.7705H49.0033V43.3105ZM51.7852 42.8271H52.6641V50H51.7852V42.8271ZM57.4039 44.7705H58.3756C58.2519 45.1058 57.9768 45.8708 57.5504 47.0654C57.2314 47.9639 56.9645 48.6963 56.7496 49.2627C56.2418 50.5973 55.8837 51.4111 55.6754 51.7041C55.4671 51.9971 55.109 52.1436 54.6012 52.1436C54.4775 52.1436 54.3814 52.1387 54.3131 52.1289C54.248 52.1191 54.1666 52.1012 54.0689 52.0752V51.2744C54.2219 51.3167 54.3326 51.3428 54.401 51.3525C54.4693 51.3623 54.5296 51.3672 54.5816 51.3672C54.7444 51.3672 54.8632 51.3395 54.9381 51.2842C55.0162 51.2321 55.0813 51.167 55.1334 51.0889C55.1497 51.0628 55.2083 50.9294 55.3092 50.6885C55.4101 50.4476 55.4833 50.2686 55.5289 50.1514L53.5953 44.7705H54.5914L55.9928 49.0283L57.4039 44.7705ZM14.8385 54.8271H18.066C18.704 54.8271 19.2184 55.0078 19.609 55.3691C19.9996 55.7272 20.1949 56.2318 20.1949 56.8828C20.1949 57.4427 20.0208 57.931 19.6725 58.3477C19.3242 58.7611 18.7887 58.9678 18.066 58.9678H15.8102V62H14.8385V54.8271ZM19.2135 56.8877C19.2135 56.3604 19.0182 56.0023 18.6275 55.8135C18.4127 55.7126 18.1181 55.6621 17.7437 55.6621H15.8102V58.1475H17.7437C18.1799 58.1475 18.5331 58.0547 18.8033 57.8691C19.0768 57.6836 19.2135 57.3564 19.2135 56.8877ZM22.3273 56.7705V60.2422C22.3273 60.5091 22.3697 60.7272 22.4543 60.8965C22.6105 61.209 22.9019 61.3652 23.3283 61.3652C23.9403 61.3652 24.357 61.0918 24.5783 60.5449C24.6988 60.252 24.759 59.8499 24.759 59.3389V56.7705H25.6379V62H24.8078L24.8176 61.2285C24.7036 61.4271 24.562 61.5947 24.3928 61.7314C24.0575 62.0049 23.6506 62.1416 23.1721 62.1416C22.4266 62.1416 21.9188 61.8926 21.6486 61.3945C21.5021 61.1276 21.4289 60.7712 21.4289 60.3252V56.7705H22.3273ZM27.1893 56.7705H28.0242V57.6738C28.0926 57.498 28.2602 57.2848 28.5271 57.0342C28.7941 56.7803 29.1017 56.6533 29.45 56.6533C29.4663 56.6533 29.4939 56.6549 29.533 56.6582C29.5721 56.6615 29.6388 56.668 29.7332 56.6777V57.6055C29.6811 57.5957 29.6323 57.5892 29.5867 57.5859C29.5444 57.5827 29.4972 57.5811 29.4451 57.5811C29.0024 57.5811 28.6622 57.7243 28.4246 58.0107C28.187 58.2939 28.0682 58.6211 28.0682 58.9922V62H27.1893V56.7705ZM32.6615 56.6191C33.2507 56.6191 33.7292 56.7624 34.0971 57.0488C34.4682 57.3353 34.6911 57.8285 34.766 58.5283H33.9115C33.8594 58.2061 33.7406 57.9391 33.5551 57.7275C33.3695 57.5127 33.0717 57.4053 32.6615 57.4053C32.1016 57.4053 31.7012 57.6787 31.4604 58.2256C31.3041 58.5804 31.226 59.0182 31.226 59.5391C31.226 60.0632 31.3367 60.5042 31.558 60.8623C31.7794 61.2204 32.1277 61.3994 32.6029 61.3994C32.9675 61.3994 33.2556 61.2887 33.4672 61.0674C33.682 60.8428 33.8301 60.5368 33.9115 60.1494H34.766C34.6684 60.8428 34.4242 61.3506 34.0336 61.6729C33.643 61.9919 33.1433 62.1514 32.5346 62.1514C31.851 62.1514 31.3057 61.9023 30.8988 61.4043C30.4919 60.903 30.2885 60.278 30.2885 59.5293C30.2885 58.6113 30.5115 57.8968 30.9574 57.3857C31.4034 56.8747 31.9714 56.6191 32.6615 56.6191ZM35.7949 54.8027H36.6738V57.4785C36.8822 57.2148 37.0693 57.0293 37.2354 56.9219C37.5186 56.7363 37.8717 56.6436 38.2949 56.6436C39.0534 56.6436 39.5677 56.9089 39.8379 57.4395C39.9844 57.7292 40.0576 58.1312 40.0576 58.6455V62H39.1543V58.7041C39.1543 58.32 39.1055 58.0384 39.0078 57.8594C38.8483 57.5729 38.5488 57.4297 38.1094 57.4297C37.7448 57.4297 37.4144 57.555 37.1182 57.8057C36.8219 58.0563 36.6738 58.5299 36.6738 59.2266V62H35.7949V54.8027ZM42.1852 60.6084C42.1852 60.8623 42.2779 61.0625 42.4635 61.209C42.649 61.3555 42.8688 61.4287 43.1227 61.4287C43.4319 61.4287 43.7314 61.3571 44.0211 61.2139C44.5094 60.9762 44.7535 60.5872 44.7535 60.0469V59.3389C44.6461 59.4072 44.5077 59.4642 44.3385 59.5098C44.1692 59.5553 44.0032 59.5879 43.8404 59.6074L43.3082 59.6758C42.9892 59.7181 42.7499 59.7848 42.5904 59.876C42.3202 60.029 42.1852 60.2731 42.1852 60.6084ZM44.3141 58.8311C44.5159 58.805 44.651 58.7204 44.7193 58.5771C44.7584 58.499 44.7779 58.3867 44.7779 58.2402C44.7779 57.9408 44.6705 57.7243 44.4557 57.5908C44.2441 57.4541 43.9397 57.3857 43.5426 57.3857C43.0836 57.3857 42.7581 57.5094 42.566 57.7568C42.4586 57.8936 42.3886 58.097 42.3561 58.3672H41.5357C41.552 57.7227 41.7604 57.2751 42.1607 57.0244C42.5644 56.7705 43.0315 56.6436 43.5621 56.6436C44.1773 56.6436 44.677 56.7607 45.0611 56.9951C45.442 57.2295 45.6324 57.5941 45.6324 58.0889V61.1016C45.6324 61.1927 45.6503 61.266 45.6861 61.3213C45.7252 61.3766 45.8049 61.4043 45.9254 61.4043C45.9645 61.4043 46.0084 61.4027 46.0572 61.3994C46.1061 61.3929 46.1581 61.3848 46.2135 61.375V62.0244C46.0768 62.0635 45.9726 62.0879 45.901 62.0977C45.8294 62.1074 45.7317 62.1123 45.608 62.1123C45.3053 62.1123 45.0855 62.0049 44.9488 61.79C44.8772 61.6761 44.8268 61.515 44.7975 61.3066C44.6184 61.541 44.3613 61.7445 44.026 61.917C43.6907 62.0895 43.3212 62.1758 42.9176 62.1758C42.4326 62.1758 42.0354 62.0293 41.7262 61.7363C41.4202 61.4401 41.2672 61.0706 41.2672 60.6279C41.2672 60.1429 41.4186 59.7669 41.7213 59.5C42.024 59.2331 42.4212 59.0687 42.9127 59.0068L44.3141 58.8311ZM47.7502 60.3594C47.7762 60.6523 47.8495 60.877 47.9699 61.0332C48.1913 61.3164 48.5754 61.458 49.1223 61.458C49.4478 61.458 49.7342 61.388 49.9816 61.248C50.229 61.1048 50.3527 60.8851 50.3527 60.5889C50.3527 60.3643 50.2535 60.1934 50.0549 60.0762C49.9279 60.0046 49.6773 59.9215 49.3029 59.8271L48.6047 59.6514C48.1587 59.5407 47.83 59.417 47.6184 59.2803C47.2408 59.0426 47.052 58.7139 47.052 58.2939C47.052 57.7992 47.2294 57.3988 47.5842 57.0928C47.9423 56.7868 48.4224 56.6338 49.0246 56.6338C49.8124 56.6338 50.3804 56.8649 50.7287 57.3271C50.9468 57.6201 51.0526 57.9359 51.0461 58.2744H50.216C50.1997 58.0758 50.1298 57.8952 50.0061 57.7324C49.8042 57.5013 49.4543 57.3857 48.9563 57.3857C48.6242 57.3857 48.3719 57.4492 48.1994 57.5762C48.0301 57.7031 47.9455 57.8708 47.9455 58.0791C47.9455 58.307 48.0578 58.4893 48.2824 58.626C48.4126 58.7074 48.6047 58.779 48.8586 58.8408L49.4397 58.9824C50.0712 59.1354 50.4943 59.2835 50.7092 59.4268C51.051 59.6514 51.2219 60.0046 51.2219 60.4863C51.2219 60.9518 51.0445 61.3538 50.6897 61.6924C50.3381 62.0309 49.801 62.2002 49.0783 62.2002C48.3003 62.2002 47.7486 62.0244 47.423 61.6729C47.1008 61.318 46.9283 60.8802 46.9055 60.3594H47.7502ZM54.5555 56.6533C54.9266 56.6533 55.2863 56.7412 55.6346 56.917C55.9829 57.0895 56.2482 57.3141 56.4305 57.5908C56.6062 57.8545 56.7234 58.1621 56.782 58.5137C56.8341 58.7546 56.8602 59.1387 56.8602 59.666H53.0271C53.0434 60.1966 53.1687 60.623 53.4031 60.9453C53.6375 61.2643 54.0005 61.4238 54.492 61.4238C54.951 61.4238 55.3172 61.2725 55.5906 60.9697C55.7469 60.7939 55.8575 60.5905 55.9227 60.3594H56.7869C56.7641 60.5514 56.6876 60.7663 56.5574 61.0039C56.4305 61.2383 56.2872 61.4303 56.1277 61.5801C55.8608 61.8405 55.5304 62.0163 55.1365 62.1074C54.9249 62.1595 54.6857 62.1855 54.4187 62.1855C53.7677 62.1855 53.2159 61.9495 52.7635 61.4775C52.311 61.0023 52.0848 60.3382 52.0848 59.4854C52.0848 58.6455 52.3126 57.9635 52.7684 57.4395C53.2241 56.9154 53.8198 56.6533 54.5555 56.6533ZM55.9568 58.9678C55.921 58.5869 55.838 58.2826 55.7078 58.0547C55.4669 57.6315 55.0649 57.4199 54.5018 57.4199C54.0981 57.4199 53.7596 57.5664 53.4861 57.8594C53.2127 58.1491 53.0678 58.5186 53.0516 58.9678H55.9568ZM58.6508 59.4463C58.6508 60.0062 58.7696 60.4749 59.0072 60.8525C59.2449 61.2301 59.6257 61.4189 60.1498 61.4189C60.5567 61.4189 60.8904 61.2448 61.1508 60.8965C61.4145 60.5449 61.5463 60.042 61.5463 59.3877C61.5463 58.7269 61.4112 58.2386 61.141 57.9229C60.8708 57.6038 60.5372 57.4443 60.14 57.4443C59.6973 57.4443 59.3376 57.6136 59.0609 57.9521C58.7875 58.2907 58.6508 58.7887 58.6508 59.4463ZM59.974 56.6777C60.3744 56.6777 60.7097 56.7624 60.9799 56.9316C61.1361 57.0293 61.3135 57.2002 61.5121 57.4443V54.8027H62.3568V62H61.5658V61.2725C61.3607 61.5947 61.1182 61.8275 60.8383 61.9707C60.5583 62.1139 60.2377 62.1855 59.8764 62.1855C59.2937 62.1855 58.7891 61.9414 58.3627 61.4531C57.9363 60.9616 57.723 60.3089 57.723 59.4951C57.723 58.7334 57.9167 58.0742 58.3041 57.5176C58.6947 56.9577 59.2514 56.6777 59.974 56.6777Z" fill="#969696"/>
<defs>
<clipPath id="clip0">
<rect width="23" height="23" fill="white" transform="translate(26 10)"/>
</clipPath>
</defs>
</svg>
