<svg width="20" height="19" viewBox="0 0 20 19" fill="none" xmlns="http://www.w3.org/2000/svg">
<path d="M18.3952 12.3349C17.1707 12.3349 15.9684 12.1565 14.8291 11.806C14.2611 11.6256 13.6144 11.7656 13.2438 12.1172L10.995 13.6979C8.38703 12.4016 6.78058 10.9062 5.40745 8.49608L7.05511 6.45668C7.48318 6.05862 7.63672 5.47714 7.45276 4.93154C7.07464 3.86509 6.88256 2.74612 6.88256 1.60547C6.88261 0.781459 6.16266 0.111084 5.27776 0.111084H1.60479C0.719948 0.111084 0 0.781459 0 1.60537C0 11.0502 8.25198 18.7339 18.3952 18.7339C19.2801 18.7339 20.0001 18.0636 20.0001 17.2396V13.8292C20 13.0052 19.2801 12.3349 18.3952 12.3349ZM18.8889 17.2397C18.8889 17.4932 18.6676 17.6994 18.3952 17.6994C8.86448 17.6994 1.11115 10.4798 1.11115 1.60542C1.11115 1.35183 1.3325 1.14572 1.60484 1.14572H5.27781C5.55016 1.14572 5.77151 1.35183 5.77151 1.60542C5.77151 2.85674 5.98255 4.08483 6.39542 5.24828C6.45292 5.42005 6.40625 5.59785 6.21964 5.77874L4.3099 8.1338C4.18188 8.2919 4.16177 8.50359 4.25781 8.67988C5.81651 11.5326 7.71052 13.2962 10.7959 14.7683C10.9836 14.8597 11.2137 14.8406 11.384 14.7208L13.9714 12.8956C14.1021 12.7739 14.298 12.7304 14.4748 12.7865C15.733 13.1735 17.0519 13.3695 18.3952 13.3695C18.6676 13.3695 18.8889 13.5756 18.8889 13.8292V17.2397Z" fill="black"/>
</svg>
