<svg width="19" height="19" viewBox="0 0 19 19" fill="none" xmlns="http://www.w3.org/2000/svg">
<path d="M9.1199 17.9075C7.38189 17.9075 5.68292 17.3921 4.23782 16.4266C2.79273 15.461 1.66641 14.0886 1.00131 12.4829C0.336201 10.8771 0.162179 9.11028 0.501247 7.40567C0.840315 5.70106 1.67724 4.13528 2.9062 2.90632C4.13515 1.67737 5.70093 0.84044 7.40554 0.501373C9.11015 0.162305 10.877 0.336327 12.4827 1.00143C14.0884 1.66654 15.4609 2.79285 16.4264 4.23795C17.392 5.68305 17.9074 7.38202 17.9074 9.12002C17.9044 11.4497 16.9776 13.6831 15.3303 15.3304C13.6829 16.9777 11.4496 17.9045 9.1199 17.9075ZM9.1199 0.807523C7.47584 0.807523 5.8687 1.29504 4.50172 2.20843C3.13474 3.12182 2.0693 4.42006 1.44015 5.93897C0.810996 7.45788 0.64638 9.12924 0.96712 10.7417C1.28786 12.3542 2.07955 13.8353 3.24207 14.9978C4.4046 16.1604 5.88574 16.9521 7.49821 17.2728C9.11068 17.5935 10.782 17.4289 12.301 16.7998C13.8199 16.1706 15.1181 15.1052 16.0315 13.7382C16.9449 12.3712 17.4324 10.7641 17.4324 9.12002C17.4299 6.91618 16.5533 4.80333 14.9949 3.24498C13.4366 1.68662 11.3237 0.810038 9.1199 0.807523Z" fill="black"/>
<path d="M11.6092 15.6105C11.5771 15.6099 11.5454 15.6028 11.5161 15.5896L2.77609 11.8276C2.7195 11.8015 2.67553 11.7541 2.65381 11.6957C2.63209 11.6373 2.63439 11.5727 2.6602 11.516L6.4222 2.77598C6.44823 2.72174 6.49403 2.67952 6.5502 2.65797C6.60637 2.63642 6.66866 2.63717 6.7243 2.66008L15.4643 6.42208C15.493 6.43428 15.519 6.45205 15.5407 6.47437C15.5625 6.49668 15.5796 6.5231 15.5911 6.55208C15.6026 6.58107 15.6082 6.61204 15.6077 6.64321C15.6071 6.67439 15.6003 6.70514 15.5878 6.73368L11.8258 15.4737C11.8065 15.5148 11.7759 15.5495 11.7375 15.5738C11.6991 15.598 11.6546 15.6108 11.6092 15.6105ZM3.18079 11.4856L11.4857 15.0595L15.0596 6.75458L6.7547 3.18068L3.18079 11.4856Z" fill="black"/>
<path d="M6.45964 15.5384C6.41231 15.5384 6.36605 15.5244 6.32678 15.498C6.28751 15.4716 6.25703 15.434 6.23924 15.3902L2.71853 6.54757C2.7068 6.51877 2.70088 6.48793 2.70113 6.45682C2.70138 6.42572 2.70778 6.39498 2.71996 6.36636C2.73215 6.33775 2.74989 6.31183 2.77214 6.2901C2.7944 6.26837 2.82073 6.25127 2.84963 6.23977L11.6922 2.71907C11.721 2.70734 11.7519 2.70142 11.783 2.70167C11.8141 2.70191 11.8448 2.70831 11.8734 2.7205C11.9021 2.73269 11.928 2.75042 11.9497 2.77268C11.9714 2.79493 11.9885 2.82127 12 2.85017L15.5207 11.6928C15.5325 11.7216 15.5384 11.7524 15.5381 11.7835C15.5379 11.8146 15.5315 11.8454 15.5193 11.874C15.5071 11.9026 15.4894 11.9285 15.4671 11.9502C15.4449 11.972 15.4185 11.9891 15.3896 12.0006L6.54704 15.5213C6.51924 15.5324 6.48959 15.5382 6.45964 15.5384ZM3.24673 6.59317L6.59264 14.9931L14.9925 11.6472L11.6466 3.24727L3.24673 6.59317Z" fill="black"/>
<path d="M9.12004 17.5901C9.06764 17.5909 9.0166 17.5734 8.97565 17.5407L6.36505 15.5267L3.16735 15.0764C3.11476 15.0691 3.06616 15.0443 3.02931 15.0061C2.99246 14.9678 2.96948 14.9184 2.96405 14.8655L2.63915 11.6982L0.695445 9.03824C0.662781 8.99647 0.645035 8.94497 0.645035 8.89194C0.645035 8.83892 0.662781 8.78742 0.695445 8.74564L2.70564 6.35164L3.28705 3.03994C3.29742 2.98862 3.32448 2.94216 3.36399 2.9078C3.40351 2.87343 3.45327 2.8531 3.50555 2.84994L6.54555 2.63904L8.97184 0.701045C9.01362 0.668381 9.06512 0.650635 9.11814 0.650635C9.17117 0.650635 9.22267 0.668381 9.26444 0.701045L11.8769 2.71504L15.1392 3.22994C15.19 3.24014 15.236 3.26664 15.2703 3.30539C15.3046 3.34415 15.3253 3.39304 15.3292 3.44464L15.5933 6.53974L17.5389 8.97174C17.5716 9.01352 17.5894 9.06502 17.5894 9.11804C17.5894 9.17107 17.5716 9.22257 17.5389 9.26434L15.5306 11.8711L15.257 14.8845C15.2521 14.9374 15.2296 14.9871 15.1931 15.0257C15.1566 15.0643 15.1082 15.0895 15.0556 15.0973L11.7078 15.597L9.26824 17.5388C9.22608 17.5722 9.17383 17.5903 9.12004 17.5901ZM3.42004 14.6299L6.49425 15.0631C6.53486 15.0698 6.5733 15.0861 6.60635 15.1106L9.12004 17.0524L11.4627 15.1866C11.4956 15.1603 11.535 15.1432 11.5767 15.1372L14.8067 14.6546L15.0708 11.759C15.0749 11.7143 15.0913 11.6715 15.1183 11.6355L17.0525 9.11994L15.1867 6.77914C15.1569 6.74228 15.139 6.69722 15.1354 6.64994L14.8808 3.66884L11.7439 3.17294C11.7046 3.16698 11.6674 3.15131 11.6356 3.12734L9.12004 1.18744L6.77924 3.05324C6.74115 3.08345 6.69476 3.10135 6.64625 3.10454L3.72405 3.30784L3.17305 6.49984C3.16602 6.54141 3.1476 6.58021 3.11985 6.61194L1.18755 8.91284L3.05905 11.4683C3.08468 11.5027 3.10045 11.5435 3.10465 11.5861L3.42004 14.6299Z" fill="black"/>
<path d="M9.12025 17.5901C9.06785 17.5909 9.0168 17.5734 8.97585 17.5407L6.36525 15.5267L3.16755 15.0764C3.11497 15.0691 3.06637 15.0443 3.02951 15.0061C2.99266 14.9678 2.96968 14.9184 2.96425 14.8655L2.63935 11.6982L0.695651 9.03824C0.662987 8.99647 0.645241 8.94497 0.645241 8.89194C0.645241 8.83892 0.662987 8.78742 0.695651 8.74564L2.70585 6.35164L3.28725 3.03994C3.29763 2.98862 3.32468 2.94216 3.3642 2.9078C3.40371 2.87343 3.45348 2.8531 3.50575 2.84994L6.54575 2.63904L8.97205 0.701045C9.01382 0.668381 9.06532 0.650635 9.11835 0.650635C9.17138 0.650635 9.22288 0.668381 9.26465 0.701045L11.8772 2.71504L15.1395 3.22994C15.1902 3.24014 15.2362 3.26664 15.2705 3.30539C15.3048 3.34415 15.3255 3.39304 15.3295 3.44464L15.5935 6.53974L17.5392 8.97174C17.5718 9.01352 17.5896 9.06502 17.5896 9.11804C17.5896 9.17107 17.5718 9.22257 17.5392 9.26434L15.5309 11.8711L15.2573 14.8845C15.2523 14.9374 15.2298 14.9871 15.1933 15.0257C15.1568 15.0643 15.1084 15.0895 15.0559 15.0973L11.7081 15.597L9.26845 17.5388C9.22628 17.5722 9.17403 17.5903 9.12025 17.5901ZM3.42025 14.6299L6.49445 15.0631C6.53507 15.0698 6.5735 15.0861 6.60655 15.1106L9.12025 17.0524L11.463 15.1866C11.4958 15.1603 11.5352 15.1432 11.577 15.1372L14.807 14.6546L15.0711 11.759C15.0751 11.7143 15.0915 11.6715 15.1186 11.6355L17.0527 9.11994L15.1869 6.77914C15.1571 6.74228 15.1393 6.69722 15.1357 6.64994L14.8811 3.66884L11.7442 3.17294C11.7048 3.16698 11.6676 3.15131 11.6359 3.12734L9.12025 1.18744L6.77945 3.05324C6.74136 3.08345 6.69496 3.10135 6.64645 3.10454L3.72425 3.30784L3.17325 6.49984C3.16622 6.54141 3.14781 6.58021 3.12005 6.61194L1.18775 8.91284L3.05925 11.4683C3.08489 11.5027 3.10066 11.5435 3.10485 11.5861L3.42025 14.6299Z" fill="black"/>
</svg>
