<svg width="20" height="19" viewBox="0 0 20 19" fill="none" xmlns="http://www.w3.org/2000/svg">
<path fill-rule="evenodd" clip-rule="evenodd" d="M16.7386 2.71486C14.8967 0.997809 12.4472 0.0517882 9.83761 0.0507812C4.46032 0.0507812 0.0839938 4.12566 0.0818308 9.13403C0.0811099 10.7351 0.530278 12.2979 1.38403 13.6755L0 18.3827L5.17169 17.1194C6.5967 17.8432 8.20099 18.2247 9.83364 18.2251H9.83773C15.2144 18.2251 19.5912 14.1499 19.5933 9.14131C19.5943 6.71399 18.5805 4.43179 16.7386 2.71486ZM9.83761 16.691H9.83424C8.37931 16.6905 6.95238 16.3264 5.70725 15.6386L5.41129 15.4749L2.34233 16.2245L3.16148 13.4384L2.96862 13.1527C2.15692 11.9506 1.7283 10.5612 1.72902 9.13459C1.7307 4.97177 5.36827 1.585 9.84085 1.585C12.0067 1.58567 14.0426 2.37203 15.5735 3.79917C17.1043 5.22631 17.9469 7.12328 17.9462 9.14075C17.9443 13.3039 14.3069 16.691 9.83761 16.691ZM14.2853 11.0363C14.0416 10.9226 12.8431 10.3737 12.6196 10.2978C12.3964 10.222 12.2337 10.1843 12.0713 10.4115C11.9087 10.6386 11.4417 11.1499 11.2994 11.3013C11.1571 11.4528 11.0151 11.4718 10.7713 11.3582C10.5275 11.2446 9.74208 11.0048 8.81094 10.2316C8.08635 9.6297 7.59717 8.88642 7.4549 8.65929C7.31287 8.43193 7.4537 8.32094 7.56184 8.19607C7.82572 7.89095 8.08996 7.57106 8.17119 7.41967C8.25254 7.26817 8.2118 7.13559 8.15076 7.02202C8.08996 6.90845 7.60246 5.79124 7.39938 5.33664C7.20136 4.89423 7.00056 4.95398 6.85084 4.94704C6.70881 4.94044 6.54623 4.9391 6.38365 4.9391C6.22119 4.9391 5.95707 4.99582 5.73357 5.22318C5.51018 5.45043 4.88053 5.99947 4.88053 7.11668C4.88053 8.23389 5.75399 9.31317 5.87584 9.46467C5.99768 9.61616 7.59477 11.9088 10.04 12.8918C10.6215 13.1259 11.0755 13.2654 11.4296 13.37C12.0136 13.5428 12.5449 13.5184 12.965 13.46C13.4334 13.3948 14.407 12.9108 14.6104 12.3807C14.8134 11.8505 14.8134 11.3961 14.7524 11.3013C14.6916 11.2067 14.529 11.1499 14.2853 11.0363Z" fill="white"/>
</svg>
